# xmcd
#
# Track frame offsets: 
#        150
#        14618
#        36663
#        53769
#        79050
#        88663
#        111918
#        131538
#
# Disc length: 2141 seconds
#
# Revision: 0
# Processed by: cddbd v1.5.2PL0 Copyright (c) Steve Scherf et al.
# Submitted via: ExactAudioCopy v0.99pb4
#
DISCID=68085b08
DTITLE=Dallas Frasca and her Gentleman - Learn Your Routes
DYEAR=2008
DGENRE=Blues
TTITLE0=Learn Your Routes
TTITLE1=Thirst For Love
TTITLE2=Take What You Need
TTITLE3=Freedom
TTITLE4=Don't Let No-One Bring You Down
TTITLE5=Motivation
TTITLE6=Got Me Goin'
TTITLE7=His Majesty
EXTD=
EXTT0=
EXTT1=
EXTT2=
EXTT3=
EXTT4=
EXTT5=
EXTT6=
EXTT7=
PLAYORDER=
